<svg xmlns="http://www.w3.org/2000/svg" width="251.53mm" height="209.18mm" viewBox="0 0 713 592.96">
  <title>forside</title>
  <g id="_2" data-name="2">
    <path d="M160.73,381.89l-.1,0Z" transform="translate(-104.01 -275.53)" fill="#594797"/>
    <path d="M183.94,346.52c38.05-11.42,99-10.26,128.42,35.29,7.43,11.51,12.65,26.6,14.5,46.34,4.94,52.69,10.46,101.76,14.88,138.58,4.17,34.76-20.45,65.61-52.35,65.61H159c-30.43,0-54.56-28.2-52.7-61.59q4.35-78,8.69-156c1-17.75,9.32-34,22.63-44.16C156.39,356.31,173.1,349.77,183.94,346.52Z" transform="translate(-104.01 -275.53)" fill="#2f1c10"/>
    <path d="M295.28,444a21.41,21.41,0,0,0,0-2.66l-2.66-48.73c-.78-14.3-16-25.53-34.4-25.33l-77.22.8a40,40,0,0,1-7.43-.56A36.68,36.68,0,0,0,154.9,369c-12.13,4.23-19.59,13.94-19.39,24.29l1,53.56c-1.25,3.14-1.28,6.87-.37,11.4q.13,9.92.28,19.84c5.38,23.53,18.42,40.57,44.23,45.94,6.91,1.43,14.25.93,21.4,1.32l28-.19c7.47-.55,15.16-.19,22.37-1.81,24.82-5.55,36.88-22.36,42.42-44.49.09-7.36.17-14.45.26-21.81C294.35,453,296.67,447.67,295.28,444Z" transform="translate(-104.01 -275.53)" fill="#d9a582"/>
    <rect x="55.91" y="148.38" width="34.8" height="32.89" rx="6.87" ry="6.87" fill="#fff"/>
    <rect x="126.25" y="148.38" width="34.8" height="32.89" rx="6.87" ry="6.87" fill="#fff"/>
    <rect x="101.19" y="186.22" width="12.88" height="4.2" rx="0.88" ry="0.88" fill="#e4b1b1"/>
    <ellipse cx="145.86" cy="167.55" rx="8.7" ry="8.22" fill="#394c9c"/>
    <ellipse cx="75.53" cy="167.55" rx="8.7" ry="8.22" fill="#394c9c"/>
    <path d="M131.69,401.91q-5,24-10,48c-1.44,6.93-2.82,14.46.19,20.94,5.71-6.53,5.88-16.55,10.82-23.72s14.17-10.49,19.95-17.17c5-5.78,7-13.57,10.07-20.66s8-14.2,15.48-15.68a66.56,66.56,0,0,0-1.83,30.9c9.61-2.31,11.57-15.16,17.92-22.79s16.87-9.64,26.59-11.23c-6.51,8.67-6.72,21.78-.49,30.93l26.73-28.34c.16,5.45,3.7,10.17,7.07,14.46,4.24,5.4,10.42,11.43,16.69,9.09,4.9-1.83,6.64-7.75,8.82-12.59s7.33-9.71,12-7.2c8.88-3.38,8.37-17.72,1.17-24.26s-17.6-7.36-27.15-7.7c-31-1.12-62-.83-92.93-.2C143,365.33,138.08,371.13,131.69,401.91Z" transform="translate(-104.01 -275.53)" fill="#2f1c10"/>
    <rect x="94.87" y="241.88" width="33.48" height="32.88" fill="#daa682"/>
    <path d="M145.55,602.51c-8.85,14.51-14.2,30-20.79,45.21-.83,1.91-1.3,4.1.63,6.19.63.68,1.88,1.82,1.63,2.06-5.77,5.48-10.77,11.16-12.91,18.21-.42,1.39-4.41-.4-6.09-2.14-6-6.25-4-12.5-1.82-18.49a562.13,562.13,0,0,0,18.86-64.06,69.46,69.46,0,0,1,5-13.49c19.23,6,19.25,6,17,19.59C146.66,597.91,146.06,600.2,145.55,602.51Z" transform="translate(-104.01 -275.53)" fill="#d9a582"/>
    <path d="M303.79,572.65c9.5,23.78,19.06,47.54,28.36,71.38.9,2.3.44,5.05.09,7.62s-3.26,4.84-6.35,5.57c-3.44.81-2.86-2.36-4.29-3.63-3.09-2.75-1-8.23-8.56-8.69-.58,0-1.34-1.15-1.13-1.67,5.66-13.9-9.24-22.1-12.46-33.56-1.52-5.44-5.6-10.28-8.53-15.38-5.6-13.16-5.6-13.16,11.92-21.31C303.14,572.84,303.48,572.76,303.79,572.65Z" transform="translate(-104.01 -275.53)" fill="#d9a582"/>
    <rect x="64.73" y="471.76" width="29.32" height="98.66" rx="6.07" ry="6.07" fill="#d9a582"/>
    <rect x="135.06" y="471.76" width="29.32" height="98.66" rx="6.07" ry="6.07" fill="#d9a582"/>
    <path d="M166.3,826.59l33.16-.24q5.53,14.88,11.09,29.77l-54.64.34Q161.1,841.54,166.3,826.59Z" transform="translate(-104.01 -275.53)" fill="#594797"/>
    <path d="M236.94,825.92a148.29,148.29,0,0,0,33.23-.16c1.44,10.92,8.36,19.51,11.36,29.78l-55.78.39C228.45,845.49,235.83,837,236.94,825.92Z" transform="translate(-104.01 -275.53)" fill="#594797"/>
    <path d="M225.75,855.93l55.78-.39c3.09,7.2,1.73,11.31-6.59,11.27-14-.07-28.08-.08-42.11.25C224.47,867.26,223.14,863.15,225.75,855.93Z" transform="translate(-104.01 -275.53)" fill="#a36cab"/>
    <path d="M155.91,856.46l54.64-.34c2.75,5.26,3.43,10.76-3.88,10.77-17.1,0-34.28,2.49-51.31-1.12l.23.09C153.57,862.65,153.22,859.5,155.91,856.46Z" transform="translate(-104.01 -275.53)" fill="#a36cab"/>
    <path d="M264.42,533.85S237.67,565.16,159.1,536l-36.89,48.67,22.91,14.6L167,566.54l-27,68.73,151.85-1.08-23.14-69.9,20.19,30.08,25-9.81Z" transform="translate(-104.01 -275.53)" fill="#584998" stroke="#584998" stroke-miterlimit="10" stroke-width="1.18"/>
    <path d="M182,486.57h56.66S243.78,511,216.74,511,180.68,510.86,182,486.57Z" transform="translate(-104.01 -275.53)" fill="#ef7c89"/>
    <path d="M236.27,486.74c-.3,4.9-3.28,6.1-7.43,6.09q-17.21,0-34.43.18c-4,0-7.24-.79-7.7-5.76C203.2,484.17,219.72,484.47,236.27,486.74Z" transform="translate(-104.01 -275.53)" fill="#f9f4ee"/>
    <path d="M192.33,507.42c12.07-8,24.37-5.84,36.73-.58C216.94,512.6,204.72,513.5,192.33,507.42Z" transform="translate(-104.01 -275.53)" fill="#d55298"/>
    <path d="M129.19,762.59q4.88-55.49,9.76-111c.73-8.36,1.38-16.72,2.07-25.07,7.19-.3,17.09,3.3,17.17-8.49.19-27.54,5.45-55,2-82.6,7.1-2,14.11-6.54,21.48-.67-.4,4.74,6.23,7,4.83,12.13-4.9,9.12-1.06,18.83-2.24,28.21-1,7.63,2.16,10.9,10.83,10.45,11.58-.61,23.2-.21,34.81-.35,21.75-.28,19.65,1.92,18.9-18.07-.25-6.76,5-15.26-4.56-20.39,2.47-3.36,7-6,4.23-11.12,7.34-4.63,14.84-5.69,22.58-.86-5.27,28.51,4.84,56.23,5.16,84.52.1,8.36,8.56,9.94,16.7,6.17,4.47,41,8.67,81.95,13.6,122.87,1.28,10.56-1.67,14.84-13.48,13.58-5.87-.62-11.95.56-17.93.91a133.55,133.55,0,0,0-39.37.22,104,104,0,0,0-28.68.08c-16.15-1.46-32.31-1.67-48.45.41-9.42-1.46-18.87-.87-28.31-.33C130.13,762.66,129.77,762.46,129.19,762.59Z" transform="translate(-104.01 -275.53)" fill="#f1892d"/>
  </g>
  <g id="_1" data-name="1">
    <path id="knold" d="M714.16,307.09" transform="translate(-104.01 -275.53)" fill="#f1e24a"/>
    <path d="M679.51,561.47s3,10-4.86,9.82-9.48,3-9.48,3S678.58,604.2,691,600.73s44.22-17.36,39-27.66c0,0-6.79-2.35-11.66-1.39,0,0-8.26.65-6.45-9.26S679.51,561.47,679.51,561.47Z" transform="translate(-104.01 -275.53)" fill="#efb78e"/>
    <path d="M763.05,604.77l21.33-3.67s6,7,3.65,22l5.48,52.78,3,24.89s.76,21.65.32,22.86-6.94,11.78-12.24,7.73c0,0-3.5-3.77-2.6-17.09,0,0-2.28-3.77-5.6-3.8s-3-5.54-.71-6.2,4.08-9.2,2.06-16.93S768,634.94,768,634.94s-1.93-6.47-5.71-4.3S763.05,604.77,763.05,604.77Z" transform="translate(-104.01 -275.53)" fill="#f8c4a0"/>
    <path d="M608.83,601.56s-3,2.6-3.4,5.51-5.18,53.43-5.18,53.43l-4.52,38.23v25.52s5.82,13.89,13.1,3.28c0,0-.66-12.14,2.12-15.62s2.9-13.42,2.9-13.42-.69-6.49,0-10,10.69-50.85,10.69-50.85,3.38-11.89,3.29-1.05,5.52-5.25,5.52-5.25l-4.09-25s-9.15-9.25-11.32-7.34S608.83,601.56,608.83,601.56Z" transform="translate(-104.01 -275.53)" fill="#f8c4a0"/>
    <path d="M677.86,829.39H646.92l-.13-70.4s2.31-8.3,15.66-9.54,15.34,11.19,15.34,11.19Z" transform="translate(-104.01 -275.53)" fill="#f8c4a0"/>
    <path d="M714.91,831.62l-1.33-72.7s1.26-6,6.13-5.53,21.71,1,21.71,1,4.23,1.43,4.56,8.67.44,69.5.44,69.5S713.7,835,714.91,831.62Z" transform="translate(-104.01 -275.53)" fill="#f8c4a0"/>
    <path d="M643,839.05s-1.7-9.9,4.53-9.86l30.31.2s5.62,1.57,3.33,12.26S643,839.05,643,839.05Z" transform="translate(-104.01 -275.53)" fill="#7daddd"/>
    <path d="M711.25,845.8s-4.45-9.37,3.66-14.18l31.51,1s6.8,3,2,11.14S711.25,845.8,711.25,845.8Z" transform="translate(-104.01 -275.53)" fill="#7daddd"/>
    <path d="M643,839.05l38.51.75s11.72,13.57,7.17,21.59-51.38,1.23-51.38,1.23S629,857.65,643,839.05Z" transform="translate(-104.01 -275.53)" fill="#d45499"/>
    <path d="M710.13,841.65l39.18.38s14.86,17.1,6.08,22.45-51.57,0-51.57,0S693.23,862.64,710.13,841.65Z" transform="translate(-104.01 -275.53)" fill="#d45499"/>
    <path d="M588.44,480.08s11.9-12.13,24.87,8.23L601.54,494Z" transform="translate(-104.01 -275.53)" fill="#efb78e"/>
    <path id="øre_højre" data-name="øre højre" d="M780,513.17s30.47,4.15,23.44-33.13c0,0-18.75-12.43-23.44,6.21S780,513.17,780,513.17Z" transform="translate(-104.01 -275.53)" fill="#efb78e"/>
    <path d="M605.41,479s-11.72,66.28,46.87,84.92h89.05s48-11.39,45.7-83.88S707.35,391,707.35,391,613.61,388.91,605.41,479Z" transform="translate(-104.01 -275.53)" fill="#f8c4a0"/>
    <ellipse id="øje_højre" data-name="øje højre" cx="644.36" cy="201.4" rx="17.58" ry="15.53" fill="#fff"/>
    <ellipse id="øje_venstre" data-name="øje venstre" cx="541.24" cy="203.47" rx="17.58" ry="15.53" fill="#fff"/>
    <ellipse cx="638.5" cy="202.44" rx="9.37" ry="8.28" fill="#4261aa"/>
    <ellipse cx="537.72" cy="204.51" rx="9.37" ry="8.28" fill="#4261aa"/>
    <path d="M730.86,461.06s20.15.64,22.36-1.19c0,0-11.08-6.4-16.72-2.61Z" transform="translate(-104.01 -275.53)" fill="#efb78e"/>
    <path d="M630.5,463.61s20.15.64,22.36-1.19c0,0-11.08-6.4-16.72-2.6Z" transform="translate(-104.01 -275.53)" fill="#efb78e"/>
    <path id="næse" d="M686.26,502.82s-9.37-10.36,9.37-10.36,7,10.36,7,10.36H686.26Z" transform="translate(-104.01 -275.53)" fill="#efb78e"/>
    <path id="tænder" d="M665.17,521.46s2.34-4.14,4.69-4.14,54.2.72,54.55.77,2.89,1.23,2.84,1.63-.41,6-7.82,6l-48.11,0S665.39,526.18,665.17,521.46Z" transform="translate(-104.01 -275.53)" fill="#f8f2ed"/>
    <path id="yder" d="M727.15,520.35s5.64-2.38,5,1.17-1.6,13.38-15.13,20-24.34,7.45-41.63.26-15.84-21.15-15.84-21.15.95-4,5.6.88c0,0,1,4.27,4.19,4.27s52.32-.2,52.32-.2A6.2,6.2,0,0,0,727.15,520.35Z" transform="translate(-104.01 -275.53)" fill="#9a2949"/>
    <path id="tunge" d="M675.83,542s8.74-8.87,18.66-8.53,19.79,5.29,22,7.67A34.06,34.06,0,0,1,704.1,546C696.8,547.3,675.23,543.11,675.83,542Z" transform="translate(-104.01 -275.53)" fill="#d45499"/>
    <path id="hår" d="M589,478.6c-8.23,1.49-11.73-.83-12-8.88-.39-13.12-1.32-26.21,1.72-39.14,9-38.29,37.72-61,81.57-66.13,24.69-2.89,48.94-.38,74.35,2.68-4-9-12.88-10.24-20.21-13.33,10.58-3.55,14-3.1,20.3,5.5,3.72,5.11,5.92,3.82,10.07-.8-.59,5.87-1,9.76,7.31,10.07,23.16.88,39.17,12.29,49.51,30C817,425,818.08,453.36,816.44,482.12c-4.78.67-8-1.77-11.63-2.67-4.84-3.58-6.75-1.6-8.55,2.88-2.21,5.48-2.17,12.15-9.09,15.52.19-3.44.2-6.89.6-10.31,1.2-10.44-2-17.82-13.63-23.33a87.63,87.63,0,0,1-37.06-32.34c-4.38-7-6.48-4.94-11-.37-5,5-9.34,11.53-19.18,11.58,4.21-6.47,11.79-10.37,11.28-18.19l1.68-.44-.36-.93L718,424.76c-32.63,23.67-69.7,39.71-110.15,49.91-1.43,0-2.15.54-1.94,1.86l-.57,22.36c-5.3-4.52-6.48-10.81-8.8-16.54C595.12,478.75,594.56,475.17,589,478.6Z" transform="translate(-104.01 -275.53)" fill="#f1e24a"/>
    <circle id="knold-2" data-name="knold" cx="611.22" cy="54.44" r="54.44" fill="#f1e24a"/>
    <ellipse id="elastik" cx="709.79" cy="364.28" rx="12.56" ry="76.29" transform="translate(193.77 771.95) rotate(-86.08)" fill="#7daddd"/>
    <path id="trøjen" d="M626.53,673.74l1.05-61.91s0-8.09-20.05-8.5c0,0-17.89-30.57,30.18-31.42,0,0,27.49-.94,28.27,1.3s10.67,21.89,30.2,22.54,30.87-23.48,30.87-23.48l38.61-.55s28.6,2,19.44,31.09c0,0-19,2-19.82,7.32s-.55,64.07-.55,64.07l-3.32,19-132-4.15Z" transform="translate(-104.01 -275.53)" fill="#d45499"/>
    <path id="kjole" d="M637.72,571.91s8.31-8.92,19.18-.09v98.64s-.72,3.9,5,4,66.45.15,66.45.15,6.78-1.87,7.12-6.67,0-96.26,0-96.26,8.57-10,15.69-.1v95.87s-.86,8.47,13.61,6.75c0,0,4.69,9.9,2.69,24.7,0,0,9.7,49.89,8,52.57s-.6,5.61-33.46,4.35h-114s-15.24,4.38-10-18.19A329.69,329.69,0,0,0,625,694.7s-3.48-21.05,1.53-21c0,0,8.19,2.78,10.83-1.9l.95-81.23Z" transform="translate(-104.01 -275.53)" fill="#7daddd"/>
  </g>
  <g id="Layer_7" data-name="Layer 7">
    <path d="M701.14,857.39l55.77-.74c3.14,7.18,1.8,11.3-6.52,11.31-14,0-28.08.1-42.11.52C699.93,868.73,698.58,864.64,701.14,857.39Z" transform="translate(-104.01 -275.53)" fill="#d45499"/>
    <path d="M634.8,856.73l54.64-.7c2.78,5.24,3.49,10.75-3.82,10.8-17.1.11-34.26,2.71-51.31-.8l.23.1C632.5,862.92,632.12,859.78,634.8,856.73Z" transform="translate(-104.01 -275.53)" fill="#d45499"/>
  </g>
</svg>
