<svg xmlns="http://www.w3.org/2000/svg" width="1510" height="737" viewBox="0 0 1510 737">
  <defs>
    <style>
      .cls-1 {
        fill: #b7855f;
      }

      .cls-2 {
        fill: #f0c904;
      }

      .cls-3 {
        fill: #e1a66e;
      }

      .cls-4 {
        fill: #960;
      }

      .cls-5 {
        fill: #020000;
      }

      .cls-6 {
        fill: #f9f7f7;
      }

      .cls-7 {
        fill: #020202;
      }

      .cls-8 {
        fill: #cc2929;
      }

      .cls-9 {
        fill: #0a0a7f;
      }

      .cls-10 {
        fill: #0d0a99;
      }
    </style>
  </defs>
  <title>walkcycle</title>
  <g id="arme">
    <path class="cls-1" d="M573.5,344c15,9,50.37,44.28,66.69,42.53s24.13-23.45,41.67-27.94c-9.87-18.34,1.12-30.41,15.38-40.46,2.91,9.14,6,19.38,3.43,28.41,15.86-2,22.7-30.18,43.84-21.49s2.55,42.32-25.72,39.86c-7.9,15.78-58.55,46.77-74.39,50.76-14.31-6.29-64.73-23.37-70.2-35.66S574.74,355.54,573.5,344Z"/>
    <path class="cls-1" d="M191.5,350.5s54,51,62,51,38-46,38-46-6-41,32-44c0,0-2,20-9,31,0,0,43-22,51-11s3,36-41,38c0,0-23,57-70,60,0,0-66-35-67-43S191.5,350.5,191.5,350.5Z"/>
    <path class="cls-1" d="M995.53,323s-18.65,71.89-14.8,78.9S1039.35,413,1039.35,413s33-25,54,6.83c0,0-18.49,7.89-31.5,7.06,0,0,40,27.07,34.22,39.38s-30.1,20-53.06-17.6c0,0-61,7.32-86.31-32.42,0,0-1.14-74.7,5.38-79.43S995.53,323,995.53,323Z"/>
    <path class="cls-1" d="M1404,348.06s-40.88,62-39.49,69.9,51.88,29.45,51.88,29.45,39.35-13,48.88,23.9c0,0-20,1.49-32.09-3.5,0,0,29.12,38.54,19.67,48.33s-34.94,9.19-44.53-33.8c0,0-60.12-12.78-71.22-58.55,0,0,23-71.06,30.75-73.43S1404,348.06,1404,348.06Z"/>
  </g>
  <g id="ansigt">
    <path class="cls-2" d="M51.5,214.5s-27-14-23-67c0,0-20-1-20-12s32,0,32,0-30-19-20-34,24,20,24,20-20-42,171-31l12-9v30l18-2s-5,17-16,12c0,0-1,64-23,73S51.5,214.5,51.5,214.5Z"/>
    <path class="cls-3" d="M71.5,309.5s-44-53-20-169c0,0,65,21,149-19,0,0,31,146,4,181S71.5,309.5,71.5,309.5Z"/>
    <path id="ventre_øjenbryn" data-name="ventre øjenbryn" class="cls-4" d="M117,174v5s12-9,13-9h23s-8-11-25-6Z"/>
    <path id="øjenbryn_højre" data-name="øjenbryn højre" class="cls-4" d="M180.5,161.5s8-12,17-12,17,11,17,11,1,5-5,3a15.28,15.28,0,0,0-16-7Z"/>
    <path id="øjne_højre" data-name="øjne højre" class="cls-5" d="M196.5,213.5s11-6,9-23-16-20-16-20-13,7-8,25S196.5,213.5,196.5,213.5Z"/>
    <path id="venstre_øje" data-name="venstre øje" class="cls-5" d="M154.5,220.5s11-6,9-23-16-20-16-20-13,7-8,25S154.5,220.5,154.5,220.5Z"/>
    <path id="ventre_inderøje" data-name="ventre inderøje" class="cls-6" d="M147.5,184.5s-11,11,0,17,11-10,11-10S155.5,181.5,147.5,184.5Z"/>
    <path id="højre_inderøje" data-name="højre inderøje" class="cls-6" d="M196.5,192.5S208,182,193,176c0,0-10.5,3.5-6.5,11.5S196.5,192.5,196.5,192.5Z"/>
    <path class="cls-7" d="M215.54,240.72c-10.28,6-29.26,17.35-59.71-.72,0,0-5.62,1,0,6s25.27,10,37.44,8c6.35-1,15.22-5.07,22.27-8.69"/>
    <path class="cls-2" d="M46,207.87S100,196,101,142s-61-2-61-2l2,71Z"/>
    <path class="cls-2" d="M464.5,211.5s-27-14-23-67c0,0-20-1-20-12s32,0,32,0-30-19-20-34,24,20,24,20-20-42,171-31l12-9v30l18-2s-5,17-16,12c0,0-1,64-23,73S464.5,211.5,464.5,211.5Z"/>
    <path class="cls-3" d="M484.5,306.5s-44-53-20-169c0,0,65,21,149-19,0,0,31,146,4,181S484.5,306.5,484.5,306.5Z"/>
    <path id="ventre_øjenbryn-2" data-name="ventre øjenbryn" class="cls-4" d="M530,171v5s12-9,13-9h23s-8-11-25-6Z"/>
    <path id="øjenbryn_højre-2" data-name="øjenbryn højre" class="cls-4" d="M593.5,158.5s8-12,17-12,17,11,17,11,1,5-5,3a15.28,15.28,0,0,0-16-7Z"/>
    <path id="øjne_højre-2" data-name="øjne højre" class="cls-5" d="M609.5,210.5s11-6,9-23-16-20-16-20-13,7-8,25S609.5,210.5,609.5,210.5Z"/>
    <path id="venstre_øje-2" data-name="venstre øje" class="cls-5" d="M567.5,217.5s11-6,9-23-16-20-16-20-13,7-8,25S567.5,217.5,567.5,217.5Z"/>
    <path id="ventre_inderøje-2" data-name="ventre inderøje" class="cls-6" d="M560.5,181.5s-11,11,0,17,11-10,11-10S568.5,178.5,560.5,181.5Z"/>
    <path id="højre_inderøje-2" data-name="højre inderøje" class="cls-6" d="M609.5,189.5S621,179,606,173c0,0-10.5,3.5-6.5,11.5S609.5,189.5,609.5,189.5Z"/>
    <path class="cls-7" d="M628.54,237.72c-10.28,6-29.26,17.35-59.71-.72,0,0-5.62,1,0,6s25.27,10,37.44,8c6.35-1,15.22-5.07,22.27-8.69"/>
    <path class="cls-2" d="M459,204.87S513,193,514,139s-61-2-61-2l2,71Z"/>
    <path class="cls-2" d="M831.5,205.5s-27-14-23-67c0,0-20-1-20-12s32,0,32,0-30-19-20-34,24,20,24,20-20-42,171-31l12-9v30l18-2s-5,17-16,12c0,0-1,64-23,73S831.5,205.5,831.5,205.5Z"/>
    <path class="cls-3" d="M851.5,300.5s-44-53-20-169c0,0,65,21,149-19,0,0,31,146,4,181S851.5,300.5,851.5,300.5Z"/>
    <path id="ventre_øjenbryn-3" data-name="ventre øjenbryn" class="cls-4" d="M897,165v5s12-9,13-9h23s-8-11-25-6Z"/>
    <path id="øjenbryn_højre-3" data-name="øjenbryn højre" class="cls-4" d="M960.5,152.5s8-12,17-12,17,11,17,11,1,5-5,3a15.28,15.28,0,0,0-16-7Z"/>
    <path id="øjne_højre-3" data-name="øjne højre" class="cls-5" d="M976.5,204.5s11-6,9-23-16-20-16-20-13,7-8,25S976.5,204.5,976.5,204.5Z"/>
    <path id="venstre_øje-3" data-name="venstre øje" class="cls-5" d="M934.5,211.5s11-6,9-23-16-20-16-20-13,7-8,25S934.5,211.5,934.5,211.5Z"/>
    <path id="ventre_inderøje-3" data-name="ventre inderøje" class="cls-6" d="M927.5,175.5s-11,11,0,17,11-10,11-10S935.5,172.5,927.5,175.5Z"/>
    <path id="højre_inderøje-3" data-name="højre inderøje" class="cls-6" d="M976.5,183.5S988,173,973,167c0,0-10.5,3.5-6.5,11.5S976.5,183.5,976.5,183.5Z"/>
    <path class="cls-7" d="M995.54,231.72c-10.28,6-29.26,17.35-59.71-.72,0,0-5.62,1,0,6s25.27,10,37.44,8c6.35-1,15.22-5.07,22.27-8.69"/>
    <path class="cls-2" d="M826,198.87S880,187,881,133s-61-2-61-2l2,71Z"/>
    <path class="cls-2" d="M1232.5,206.5s-27-14-23-67c0,0-20-1-20-12s32,0,32,0-30-19-20-34,24,20,24,20-20-42,171-31l12-9v30l18-2s-5,17-16,12c0,0-1,64-23,73S1232.5,206.5,1232.5,206.5Z"/>
    <path class="cls-3" d="M1252.5,301.5s-44-53-20-169c0,0,65,21,149-19,0,0,31,146,4,181S1252.5,301.5,1252.5,301.5Z"/>
    <path id="ventre_øjenbryn-4" data-name="ventre øjenbryn" class="cls-4" d="M1298,166v5s12-9,13-9h23s-8-11-25-6Z"/>
    <path id="øjenbryn_højre-4" data-name="øjenbryn højre" class="cls-4" d="M1361.5,153.5s8-12,17-12,17,11,17,11,1,5-5,3a15.28,15.28,0,0,0-16-7Z"/>
    <path id="øjne_højre-4" data-name="øjne højre" class="cls-5" d="M1377.5,205.5s11-6,9-23-16-20-16-20-13,7-8,25S1377.5,205.5,1377.5,205.5Z"/>
    <path id="venstre_øje-4" data-name="venstre øje" class="cls-5" d="M1335.5,212.5s11-6,9-23-16-20-16-20-13,7-8,25S1335.5,212.5,1335.5,212.5Z"/>
    <path id="ventre_inderøje-4" data-name="ventre inderøje" class="cls-6" d="M1328.5,176.5s-11,11,0,17,11-10,11-10S1336.5,173.5,1328.5,176.5Z"/>
    <path id="højre_inderøje-4" data-name="højre inderøje" class="cls-6" d="M1377.5,184.5S1389,174,1374,168c0,0-10.5,3.5-6.5,11.5S1377.5,184.5,1377.5,184.5Z"/>
    <path class="cls-7" d="M1396.54,232.72c-10.28,6-29.26,17.35-59.71-.72,0,0-5.62,1,0,6s25.27,10,37.44,8c6.35-1,15.22-5.07,22.27-8.69"/>
    <path class="cls-2" d="M1227,199.87S1281,188,1282,134s-61-2-61-2l2,71Z"/>
  </g>
  <g id="krop">
    <path class="cls-3" d="M476,309.59a6.59,6.59,0,0,1,6.59-6.59H631.41a6.59,6.59,0,0,1,6.59,6.59v205a6.59,6.59,0,0,1-6.41,6.59c-25.89.74-122.74,3.28-149.64.76a6.57,6.57,0,0,1-5.95-6.56Z"/>
    <path class="cls-3" d="M59,306.59A6.59,6.59,0,0,1,65.59,300H214.41a6.59,6.59,0,0,1,6.59,6.59v205a6.59,6.59,0,0,1-6.41,6.59c-25.89.74-122.74,3.28-149.64.76a6.57,6.57,0,0,1-6-6.56Z"/>
    <path class="cls-3" d="M838,309.59a6.59,6.59,0,0,1,6.59-6.59H993.41a6.59,6.59,0,0,1,6.59,6.59v205a6.59,6.59,0,0,1-6.41,6.59c-25.89.74-122.74,3.28-149.64.76a6.57,6.57,0,0,1-6-6.56Z"/>
    <path class="cls-3" d="M1239,310.59a6.59,6.59,0,0,1,6.59-6.59h148.82a6.59,6.59,0,0,1,6.59,6.59v205a6.59,6.59,0,0,1-6.41,6.59c-25.89.74-122.74,3.28-149.64.76a6.57,6.57,0,0,1-6-6.56Z"/>
  </g>
  <g id="Tøj">
    <path class="cls-8" d="M476,311s-18-19,121-8l41,32V517H479C476,517,472,461,476,311Z"/>
    <path class="cls-8" d="M59,308s-18-19,121-8l41,32V514H62C59,514,55,458,59,308Z"/>
    <path class="cls-8" d="M838,311s-18-19,121-8l41,32V517H841C838,517,834,461,838,311Z"/>
    <path class="cls-8" d="M1239,312s-18-19,121-8l41,32V518H1242C1239,518,1235,462,1239,312Z"/>
  </g>
  <g id="fødder">
    <path class="cls-9" d="M584.33,581.83c11.86,33.69,16.51,46.4,16.3,82.19-3.25,5.22-16.13,10.71-12.43,19s42.6,5.83,52.44,5.12c-2.25-7.63-5.93-17.86-13.87-21-.23-42.66-7.31-64.4-21.44-104C598.33,569.32,591.3,575.58,584.33,581.83Z"/>
    <path class="cls-10" d="M548.24,566.31c3.82,45.73,4.68,47.5-14.84,88.54-2.07,4.41,16.56,22.63,3.68,25.41s-42.84-14.84-53.69-26.16c12.61-9.6,7-5.47,26.38-13.68s18-50.23,11-71.55C531,567.25,539,567.3,548.24,566.31Z"/>
    <path class="cls-9" d="M158,574.5v92s-14,11-14,19,54,5,54,5-7-21-14-21v-106Z"/>
    <path class="cls-10" d="M137.26,572.58l-15.39,89.69s17.66,21.29,13.21,23.57S95.93,689.28,74,675.36c0,0,15.38-18.67,19.32-18S110.64,568,110.64,568Z"/>
    <path class="cls-9" d="M933.23,578.75c12.74,29.79,30.83,53.56,22.1,85.54-2.05,6.49-17.7,14.85-9.3,22.69s39.89-4.78,50.56-8.29c-4.46-7.82-9.37-14-17.77-17.62,4.69-41.73-10.06-65.1-26.31-103C946.08,565,939.61,571.86,933.23,578.75Z"/>
    <path class="cls-10" d="M923.55,568.14c-4.28,31.94-9.31,58.41-12.86,90.86-.35,3.23,23.86,16,9.7,22.31s-43-.39-57.75-8.59c5.38-8.74,13.84-14.44,21.07-21.43S896.56,578.13,896,564.7C905.17,565.39,914.44,567.15,923.55,568.14Z"/>
    <path class="cls-9" d="M1327.53,571.52c4.08,29.42,12.57,63.77,8.93,93.46-1.49,7.28-18.3,14.51-7.38,22.7s36.9-3.37,49.33-7.95c-4.31-8-9.9-13.85-18.33-17.56-3.69-35.54-3.48-69.28-8.41-105.33C1343.62,561.72,1335.54,566.61,1327.53,571.52Z"/>
    <path class="cls-10" d="M1303.55,567.14c-4.28,31.94-9.31,58.41-12.86,90.86-.35,3.23,23.86,16,9.7,22.31s-43-.39-57.75-8.59c5.38-8.74,13.84-14.44,21.07-21.43s12.85-73.16,12.33-86.59C1285.17,564.39,1294.44,566.15,1303.55,567.14Z"/>
  </g>
  <g id="Bukser">
    <rect class="cls-10" x="476" y="514" width="163" height="70"/>
    <circle class="cls-7" cx="630" cy="535" r="3"/>
    <circle class="cls-7" cx="630" cy="546" r="3"/>
    <circle class="cls-7" cx="630" cy="523" r="3"/>
    <rect class="cls-10" x="59" y="511" width="163" height="70"/>
    <circle class="cls-7" cx="213" cy="532" r="3"/>
    <circle class="cls-7" cx="213" cy="543" r="3"/>
    <circle class="cls-7" cx="213" cy="520" r="3"/>
    <rect class="cls-10" x="838" y="514" width="163" height="70"/>
    <circle class="cls-7" cx="992" cy="535" r="3"/>
    <circle class="cls-7" cx="992" cy="546" r="3"/>
    <circle class="cls-7" cx="992" cy="523" r="3"/>
    <rect class="cls-10" x="1239" y="515" width="163" height="70"/>
    <circle class="cls-7" cx="1393" cy="536" r="3"/>
    <circle class="cls-7" cx="1393" cy="547" r="3"/>
    <circle class="cls-7" cx="1393" cy="524" r="3"/>
  </g>
  <g id="arm_2" data-name="arm 2">
    <path class="cls-3" d="M578.89,342.05s-18.7,71.88-14.85,78.89,58.61,11.16,58.61,11.16,33.05-25,54,6.86c0,0-18.49,7.88-31.5,7,0,0,40,27.09,34.2,39.4s-30.11,20-53.05-17.64c0,0-61,7.29-86.29-32.46,0,0-1.1-74.7,5.43-79.43S578.89,342.05,578.89,342.05Z"/>
    <path class="cls-3" d="M152.74,334.5s13.75,73,20.23,77.69,57.77-14.91,57.77-14.91,19.23-36.7,51.74-16.81c0,0-13.36,15-25.49,19.8,0,0,47.72,7.45,47.73,21.06S286,452.22,249.22,428c0,0-52.09,32.62-91.89,7.44,0,0-32.86-67.09-29-74.16S152.74,334.5,152.74,334.5Z"/>
    <path class="cls-3" d="M938.43,359.47c-2.94,22.84-24.93,62.7-19.87,82.56s21.57,17.39,33.91,31c25.15-3.76,34.58,5.53,46.06,26.69-10.44.57-21.11.17-30.34-4.25,3.31,19.62,33.6,28.39,16.8,50.18s-41.37-19-38.59-36.17c-24.4-11.26-40-29.46-53-52.3,3-18.9,1.82-69.61,12.08-82.2S927,367.19,938.43,359.47Z"/>
    <path class="cls-3" d="M1349.23,367.43c-10.15,25.27-36.5,52.49-35.94,79.07s16.3,25.4,24.68,46.09c26.18,6.61,30.47,16,36.44,41.05-10.41-2.68-19.88-6.31-27.7-13.36-1.28,21.23,23.38,37.11.09,53.12s-32.52-30.48-25-46.12c-19.23-20.43-29.56-43.68-36.85-70.52,7-21.11,13.15-66.34,28-79.61S1335,374.06,1349.23,367.43Z"/>
  </g>
</svg>
